<svg xmlns="http://www.w3.org/2000/svg" xmlns:v="https://svgstorm.com"
viewBox = "0 0 500 500"
width="500"
height="500">
<g fill="None" fill-opacity="0.0" stroke="#FEFEFE" stroke-opacity="1.00" stroke-width="0.3"><path d="
M 0.00 500.00 
L 500.00 500.00
L 500.00 0.00
L 0.00 0.00
L 0.00 500.00
M 172.00 132.00 
C 176.00 132.00 180.00 132.08 184.00 132.00
C 190.26 131.87 195.52 130.65 201.00 128.00
C 205.01 141.79 193.17 148.48 181.00 146.00
C 176.69 146.00 172.30 145.74 168.00 146.00
C 166.06 146.33 163.96 145.75 162.00 146.00
C 160.17 160.44 158.52 174.96 159.00 190.00
C 173.56 190.22 187.96 189.89 202.00 188.00
C 201.80 180.89 200.73 174.00 200.00 167.00
C 221.66 171.45 222.50 197.81 224.00 215.00
C 230.64 197.18 246.26 179.47 266.00 177.00
C 268.63 176.53 270.43 176.54 273.00 177.00
C 305.53 179.07 300.71 228.37 292.07 250.07 C 283.44 271.78 255.80 300.04 229.00 286.00
C 243.54 280.84 254.38 273.70 263.25 259.25 C 272.13 244.81 276.43 229.72 276.00 211.00 C 275.57 192.28 250.52 188.91 240.25 203.25 C 229.98 217.58 224.42 227.14 220.22 244.22 C 216.03 261.31 213.80 279.49 213.00 298.00 C 212.20 316.51 213.21 338.27 217.00 356.00
C 205.84 356.21 190.75 350.32 191.00 337.00
C 190.46 333.65 190.69 330.21 191.00 327.00
C 191.00 291.71 201.28 257.84 202.00 222.00
C 202.05 219.59 202.84 216.70 203.00 215.00
C 203.06 212.00 202.96 209.00 203.00 206.00
C 179.44 206.59 156.12 201.30 133.00 206.00
C 139.53 198.13 140.26 189.30 140.00 179.00 C 139.74 168.70 144.47 159.40 144.00 149.00
C 141.09 148.76 138.82 150.76 136.00 151.00
C 134.22 142.71 137.68 133.36 147.00 133.00
C 148.26 117.33 150.22 101.81 151.00 86.00
C 140.89 87.02 142.00 74.44 144.00 68.00
C 169.89 72.55 197.24 70.95 223.00 67.00
C 217.41 90.17 187.55 84.03 169.00 86.00
C 168.46 101.61 164.65 116.40 164.00 132.00
C 166.67 132.00 169.33 132.00 172.00 132.00 Z"/>
</g>
<g fill="None" fill-opacity="0.0" stroke="#000000" stroke-opacity="1.00" stroke-width="0.3"><path d="
M 203.00 215.00 
C 202.95 217.41 202.16 220.30 202.00 222.00
C 201.28 257.84 191.00 291.71 191.00 327.00
C 191.00 330.32 190.82 333.69 191.00 337.00
C 190.75 350.32 205.84 356.21 217.00 356.00
C 213.21 338.27 212.20 316.51 213.00 298.00 C 213.80 279.49 216.03 261.31 220.22 244.22 C 224.42 227.14 229.98 217.58 240.25 203.25 C 250.52 188.91 275.57 192.28 276.00 211.00 C 276.43 229.72 272.13 244.81 263.25 259.25 C 254.38 273.70 243.54 280.84 229.00 286.00
C 255.80 300.04 283.44 271.78 292.07 250.07 C 300.71 228.37 305.53 179.07 273.00 177.00
C 270.73 176.86 268.27 176.86 266.00 177.00
C 246.26 179.47 230.64 197.18 224.00 215.00
C 222.50 197.81 221.66 171.45 200.00 167.00
C 200.73 174.00 201.80 180.89 202.00 188.00
C 187.96 189.89 173.56 190.22 159.00 190.00
C 158.52 174.96 160.17 160.44 162.00 146.00
C 163.96 145.75 166.06 146.33 168.00 146.00
C 172.27 145.28 176.87 145.60 181.00 146.00
C 193.17 148.48 205.01 141.79 201.00 128.00
C 195.52 130.65 190.26 131.87 184.00 132.00
C 180.15 132.47 175.76 132.36 172.00 132.00
C 169.33 132.00 166.67 132.00 164.00 132.00
C 164.65 116.40 168.46 101.61 169.00 86.00
C 187.55 84.03 217.41 90.17 223.00 67.00
C 197.24 70.95 169.89 72.55 144.00 68.00
C 142.00 74.44 140.89 87.02 151.00 86.00
C 150.22 101.81 148.26 117.33 147.00 133.00
C 137.68 133.36 134.22 142.71 136.00 151.00
C 138.82 150.76 141.09 148.76 144.00 149.00
C 144.47 159.40 139.74 168.70 140.00 179.00 C 140.26 189.30 139.53 198.13 133.00 206.00
C 156.12 201.30 179.44 206.59 203.00 206.00
C 202.96 209.00 203.06 212.00 203.00 215.00 Z"/>
</g>
<g fill="None" fill-opacity="0.0" stroke="#7B7B7B" stroke-opacity="1.00" stroke-width="0.3"><path d="
M 184.00 132.00 
C 180.00 132.08 176.00 132.00 172.00 132.00
C 175.76 132.36 180.15 132.47 184.00 132.00 Z"/>
</g>
<g fill="None" fill-opacity="0.0" stroke="#616161" stroke-opacity="1.00" stroke-width="0.3"><path d="
M 168.00 146.00 
C 172.30 145.74 176.69 146.00 181.00 146.00
C 176.87 145.60 172.27 145.28 168.00 146.00 Z"/>
</g>
<g fill="None" fill-opacity="0.0" stroke="#808080" stroke-opacity="1.00" stroke-width="0.3"><path d="
M 266.00 177.00 
C 268.27 176.86 270.73 176.86 273.00 177.00
C 270.43 176.54 268.63 176.53 266.00 177.00 Z"/>
</g>
<g fill="None" fill-opacity="0.0" stroke="#818181" stroke-opacity="1.00" stroke-width="0.3"><path d="
M 202.00 222.00 
C 202.16 220.30 202.95 217.41 203.00 215.00
C 202.84 216.70 202.05 219.59 202.00 222.00 Z"/>
</g>
<g fill="None" fill-opacity="0.0" stroke="#656565" stroke-opacity="1.00" stroke-width="0.3"><path d="
M 191.00 337.00 
C 190.82 333.69 191.00 330.32 191.00 327.00
C 190.69 330.21 190.46 333.65 191.00 337.00 Z"/>
</g>
<g fill="#FEFEFE" fill-opacity="1.00" stroke="None">
<path d="
M 0.00 500.00 
L 500.00 500.00
L 500.00 0.00
L 0.00 0.00
L 0.00 500.00
M 172.00 132.00 
C 176.00 132.00 180.00 132.08 184.00 132.00
C 190.26 131.87 195.52 130.65 201.00 128.00
C 205.01 141.79 193.17 148.48 181.00 146.00
C 176.69 146.00 172.30 145.74 168.00 146.00
C 166.06 146.33 163.96 145.75 162.00 146.00
C 160.17 160.44 158.52 174.96 159.00 190.00
C 173.56 190.22 187.96 189.89 202.00 188.00
C 201.80 180.89 200.73 174.00 200.00 167.00
C 221.66 171.45 222.50 197.81 224.00 215.00
C 230.64 197.18 246.26 179.47 266.00 177.00
C 268.63 176.53 270.43 176.54 273.00 177.00
C 305.53 179.07 300.71 228.37 292.07 250.07 C 283.44 271.78 255.80 300.04 229.00 286.00
C 243.54 280.84 254.38 273.70 263.25 259.25 C 272.13 244.81 276.43 229.72 276.00 211.00 C 275.57 192.28 250.52 188.91 240.25 203.25 C 229.98 217.58 224.42 227.14 220.22 244.22 C 216.03 261.31 213.80 279.49 213.00 298.00 C 212.20 316.51 213.21 338.27 217.00 356.00
C 205.84 356.21 190.75 350.32 191.00 337.00
C 190.46 333.65 190.69 330.21 191.00 327.00
C 191.00 291.71 201.28 257.84 202.00 222.00
C 202.05 219.59 202.84 216.70 203.00 215.00
C 203.06 212.00 202.96 209.00 203.00 206.00
C 179.44 206.59 156.12 201.30 133.00 206.00
C 139.53 198.13 140.26 189.30 140.00 179.00 C 139.74 168.70 144.47 159.40 144.00 149.00
C 141.09 148.76 138.82 150.76 136.00 151.00
C 134.22 142.71 137.68 133.36 147.00 133.00
C 148.26 117.33 150.22 101.81 151.00 86.00
C 140.89 87.02 142.00 74.44 144.00 68.00
C 169.89 72.55 197.24 70.95 223.00 67.00
C 217.41 90.17 187.55 84.03 169.00 86.00
C 168.46 101.61 164.65 116.40 164.00 132.00
C 166.67 132.00 169.33 132.00 172.00 132.00 Z"/>
</g>
<g fill="#000000" fill-opacity="1.00" stroke="None">
<path d="
M 203.00 215.00 
C 202.95 217.41 202.16 220.30 202.00 222.00
C 201.28 257.84 191.00 291.71 191.00 327.00
C 191.00 330.32 190.82 333.69 191.00 337.00
C 190.75 350.32 205.84 356.21 217.00 356.00
C 213.21 338.27 212.20 316.51 213.00 298.00 C 213.80 279.49 216.03 261.31 220.22 244.22 C 224.42 227.14 229.98 217.58 240.25 203.25 C 250.52 188.91 275.57 192.28 276.00 211.00 C 276.43 229.72 272.13 244.81 263.25 259.25 C 254.38 273.70 243.54 280.84 229.00 286.00
C 255.80 300.04 283.44 271.78 292.07 250.07 C 300.71 228.37 305.53 179.07 273.00 177.00
C 270.73 176.86 268.27 176.86 266.00 177.00
C 246.26 179.47 230.64 197.18 224.00 215.00
C 222.50 197.81 221.66 171.45 200.00 167.00
C 200.73 174.00 201.80 180.89 202.00 188.00
C 187.96 189.89 173.56 190.22 159.00 190.00
C 158.52 174.96 160.17 160.44 162.00 146.00
C 163.96 145.75 166.06 146.33 168.00 146.00
C 172.27 145.28 176.87 145.60 181.00 146.00
C 193.17 148.48 205.01 141.79 201.00 128.00
C 195.52 130.65 190.26 131.87 184.00 132.00
C 180.15 132.47 175.76 132.36 172.00 132.00
C 169.33 132.00 166.67 132.00 164.00 132.00
C 164.65 116.40 168.46 101.61 169.00 86.00
C 187.55 84.03 217.41 90.17 223.00 67.00
C 197.24 70.95 169.89 72.55 144.00 68.00
C 142.00 74.44 140.89 87.02 151.00 86.00
C 150.22 101.81 148.26 117.33 147.00 133.00
C 137.68 133.36 134.22 142.71 136.00 151.00
C 138.82 150.76 141.09 148.76 144.00 149.00
C 144.47 159.40 139.74 168.70 140.00 179.00 C 140.26 189.30 139.53 198.13 133.00 206.00
C 156.12 201.30 179.44 206.59 203.00 206.00
C 202.96 209.00 203.06 212.00 203.00 215.00 Z"/>
</g>
<g fill="#7B7B7B" fill-opacity="1.00" stroke="None">
<path d="
M 184.00 132.00 
C 180.00 132.08 176.00 132.00 172.00 132.00
C 175.76 132.36 180.15 132.47 184.00 132.00 Z"/>
</g>
<g fill="#616161" fill-opacity="1.00" stroke="None">
<path d="
M 168.00 146.00 
C 172.30 145.74 176.69 146.00 181.00 146.00
C 176.87 145.60 172.27 145.28 168.00 146.00 Z"/>
</g>
<g fill="#808080" fill-opacity="1.00" stroke="None">
<path d="
M 266.00 177.00 
C 268.27 176.86 270.73 176.86 273.00 177.00
C 270.43 176.54 268.63 176.53 266.00 177.00 Z"/>
</g>
<g fill="#818181" fill-opacity="1.00" stroke="None">
<path d="
M 202.00 222.00 
C 202.16 220.30 202.95 217.41 203.00 215.00
C 202.84 216.70 202.05 219.59 202.00 222.00 Z"/>
</g>
<g fill="#656565" fill-opacity="1.00" stroke="None">
<path d="
M 191.00 337.00 
C 190.82 333.69 191.00 330.32 191.00 327.00
C 190.69 330.21 190.46 333.65 191.00 337.00 Z"/>
</g>
</svg>